<svg xmlns="http://www.w3.org/2000/svg" fill="none" viewBox="0 0 24 24" id="Conda--Streamline-Svg-Logos" height="24" width="24">
  <desc>
    Conda Streamline Icon: https://streamlinehq.com
  </desc>
  <path fill="#ffffff" d="M0.9210425 11.955775c0.218545 -0.12565 0.415235 -0.147525 0.4862625 -0.152975 0.0109275 -0.08195 0.0273175 -0.15845 0.0491725 -0.23495 -0.0710275 -0.054625 -0.2076175 -0.1639 -0.33328 -0.3278 0.2021525 -0.0164 0.3769875 0.010925 0.4644075 0.0273 0.0437075 -0.076475 0.098345 -0.1475 0.1639075 -0.218525 -0.038245 -0.065575 -0.1092725 -0.1967 -0.1529825 -0.377 0.16391 0.071025 0.28411 0.15845 0.3442075 0.207625 0.081955 -0.0601 0.1693725 -0.109275 0.25679 -0.152975 0 -0.0765 0 -0.2131 0.0327825 -0.377 0.114735 0.1202 0.1857625 0.234925 0.21308 0.295025 0.109285 -0.02185 0.22401 -0.032775 0.34421 -0.0273 0.02185 -0.0601 0.06555 -0.163925 0.14205 -0.289575 0.05465 0.14205 0.0765 0.256775 0.087425 0.316875 0.1202 0.027325 0.234925 0.065575 0.3442 0.1202 0.174825 -0.1475 0.33875 -0.213075 0.529975 -0.26225 0 -0.2404 -0.032775 -0.475325 -0.15845 -0.710275 -0.12565 -0.0601 -0.26225 -0.1038 -0.39885 -0.136575 -0.14205 0.076475 -0.256775 0.1639 -0.355125 0.256775 -0.071025 -0.10925 -0.1639 -0.224 -0.27865 -0.3278 -0.054625 0 -0.15845 -0.005475 -0.3605925 0.027325 -0.098345 0.12565 -0.1693725 0.251325 -0.2240075 0.376975 -0.1202 -0.0765 -0.2677175 -0.14205 -0.43709 -0.18575 -0.098345 0.0437 -0.191225 0.092875 -0.2841075 0.1475 -0.0327825 0.15845 -0.04371 0.305975 -0.038245 0.44255 -0.142055 -0.0273 -0.3059625 -0.038225 -0.4807975 -0.016375 -0.0601 0.06555 -0.1202 0.136575 -0.174835 0.213075 0.0109275 0.1967 0.0601 0.36605 0.131125 0.513575 -0.1639075 0.03825 -0.33328 0.109275 -0.491725 0.21855 -0.0218525 0.071025 -0.038245 0.147525 -0.054635 0.21855 0.098345 0.169375 0.2240075 0.30595 0.34967 0.409775 -0.1256625 0.1038 -0.251325 0.24585 -0.36606 0.437075 0.010925 0.08195 0.0273175 0.15845 0.0491725 0.234925h0.0054625c0.1311275 -0.273175 0.2895725 -0.453475 0.4425525 -0.573675 0.311425 0.2131 0.6173875 0.2732 0.6610975 0.27865 -0.005465 -0.049175 -0.0163925 -0.09835 -0.021855 -0.1639 -0.0928825 -0.02185 -0.2841075 -0.08195 -0.4862625 -0.207625Zm2.7208825 -1.633625c-0.09835 0.03825 -0.251325 0.109275 -0.39885 0.229475 -0.02185 -0.1038 -0.0601 -0.256775 -0.14205 -0.431625 0.09835 -0.09835 0.224 -0.196675 0.38245 -0.27865 0.109275 0.163925 0.147525 0.366075 0.15845 0.4808Zm-0.814075 -0.229475c-0.11475 0.147525 -0.185775 0.289575 -0.224025 0.387925 -0.054625 -0.09835 -0.15297 -0.229475 -0.3004875 -0.3606 0.0491725 -0.12565 0.1201975 -0.26225 0.2240125 -0.387925 0.131125 0.109275 0.229475 0.2404 0.3005 0.3606Zm-0.770375 0.103825c-0.0546375 0.191225 -0.065565 0.3606 -0.065565 0.469875 -0.098345 -0.071025 -0.2403975 -0.15845 -0.42616 -0.21855 -0.0163925 -0.131125 -0.0109275 -0.2841 0.0273175 -0.448025 0.1912275 0.03825 0.338745 0.109275 0.4644075 0.1967Zm-0.5026525 0.8851c-0.1256625 -0.02185 -0.31689 -0.03825 -0.52997 -0.010925 -0.0710275 -0.1366 -0.1256625 -0.305975 -0.13659 -0.4972 0.1857625 -0.02185 0.355135 -0.00545 0.5026525 0.027325 0.038245 0.213075 0.10927 0.377 0.1639075 0.4808Zm-0.628315 0.18575c0.114735 0.1803 0.25679 0.31145 0.355135 0.3934 -0.1256625 0.02185 -0.3114275 0.071025 -0.5081175 0.196675 -0.1201975 -0.092875 -0.2403975 -0.21855 -0.3387425 -0.38245 0.158445 -0.114725 0.33328 -0.174825 0.491725 -0.207625Z" stroke-width="0.25"></path>
  <path fill="#43b02a" d="m2.643325 9.57855 0.046175 0.0003 0.00335 0.000125 0.0148 -0.0001c0.229275 0 0.436525 0.022875 0.63515 0.0712l0.014525 0.003525 -0.0018 0.00095 0.01585 0.003925c0.135125 0.034275 0.2572 0.076675 0.3685 0.13105l0.001075 0.0021 0.023225 0.012425c0.012825 0.007 0.028275 0.01555 0.04595 0.025525l0.02665 0.015175c0.11575 0.066325 0.232875 0.139725 0.338775 0.21565l0.02545 0.018475c0.0633 0.04645 0.1191 0.091725 0.1656 0.13495 0.098725 0.0755 0.115175 0.232775 0.028375 0.324975l-0.007825 0.009425c-0.0266 0.030825 -0.0979 0.10615 -0.178575 0.18865l-0.0449 0.04565 -0.04095 0.041225 -0.061425 0.060825c-0.068475 0.06705 -0.1174 0.1119 -0.13825 0.12575 -0.104075 0.049575 -0.1852 0.03275 -0.280125 -0.046725l-0.010225 -0.00875c-0.084025 -0.072825 -0.171225 -0.13185 -0.266525 -0.1795l-0.000725 -0.00605 -0.004725 0.000575c-0.10185 -0.0509 -0.211775 -0.08925 -0.3336 -0.117575l-0.003775 0.003325c-0.07625 -0.016325 -0.152475 -0.027225 -0.228675 -0.032675l-0.001625 -0.0025 -0.0037 0.002525c-0.112425 -0.005125 -0.2242 0.00395 -0.336855 0.026025l-0.0005475 0.001175c-0.0588225 0.011325 -0.1164925 0.02815 -0.16905 0.047825l-0.015195 0.00585c-0.0297325 0.011725 -0.054645 0.023275 -0.05893 0.0266l-0.0047375 -0.002 -0.0019325 0.003175c-0.0995675 0.0498 -0.1817225 0.09805 -0.2559625 0.1525l-0.0068025 -0.000225 -0.0099475 0.00775c-0.037755 0.0299 -0.07137 0.05985 -0.1077275 0.094875l-0.0514775 0.05055 -0.0080725 0.007425c-0.001635 0.001425 -0.003 0.0025 -0.004155 0.0033 -0.0006475 0.00045 -0.0012525 0.000825 -0.00184 0.00115l-0.00038 0.0038c-0.0665 0.07205 -0.118745 0.1409 -0.16015 0.2123l0.0024525 0.005225 -0.006695 0.01155c-0.0621975 0.1085 -0.116955 0.244575 -0.1235725 0.2818l-0.0005725 0.004375 -0.0055725 0.002725 -0.00881 0.032125c-0.0176125 0.0666 -0.030695 0.132325 -0.0398175 0.20075l-0.00278 0.00255 0.0027725 0.002975c-0.0160375 0.11225 -0.01631 0.235075 -0.00081 0.352925l0.0008475 0.0009c0.001675 0.0201 0.0037925 0.038575 0.0068075 0.060125l0.0100525 0.066275c0.00212 0.014175 0.0036875 0.0258 0.004935 0.03695 0.00212 0.000325 0.0041 0.000575 0.0059825 0.000825l0.004855 0.0043c0.2390025 0.961425 1.3751375 1.333925 2.1654375 0.712575 0.12605 -0.0975 0.214875 -0.116225 0.305925 -0.0685 0.04585 0.024025 0.090825 0.062425 0.160525 0.134l0.117075 0.122875c0.0393 0.040975 0.074525 0.076625 0.110775 0.111675l0.018225 0.0175c0.001725 0.00185 0.042 0.043375 0.0552 0.058275 0.102025 0.11505 0.116825 0.223725 -0.006075 0.353875 -0.54315 0.569625 -1.41825 0.781275 -2.257895 0.575975 -0.87405 -0.2137 -1.555375 -0.835625 -1.789415 -1.720375l0.00167 -0.002225 -0.00159 0.00105h-0.0054625l-0.005515 -0.004175c-0.0224775 -0.07865 -0.0386275 -0.155375 -0.0485775 -0.23945l0.011345 -0.018675 -0.0010925 -0.00735c-0.03893425 -0.26795 -0.03482025 -0.546025 0.0144575 -0.803725l-0.00899 -0.01545 0.0229075 -0.0994 0.002375 -0.009925c0.010135 -0.0421 0.0194675 -0.07715 0.0316875 -0.11265l0.0052075 -0.003575 0.008155 -0.02645c0.0729125 -0.2316 0.1862725 -0.460975 0.330465 -0.67085l0.0157625 -0.022575 -0.0004025 -0.0073c0.0504525 -0.070625 0.1080525 -0.140275 0.17879 -0.215425l0.0150725 -0.001775 0.012435 -0.013275c0.0273125 -0.02885 0.0549325 -0.056475 0.08291 -0.08285l0.0284225 -0.02625c0.10518 -0.098825 0.2204025 -0.18815 0.3440625 -0.267025l0.0287475 -0.018075 0.0024875 -0.0124 0.00271 -0.003775c0.0984175 -0.0579 0.1907425 -0.10605 0.28845 -0.148125l0.0126775 0.003375 0.016735 -0.007225c0.1803225 -0.0778 0.3706025 -0.1351 0.5658875 -0.170475l0.0391225 -0.006775 0.01863 -0.003025 0.0056925 -0.0072c0.123285 -0.02 0.215725 -0.027325 0.30265 -0.027725Zm-1.9248775 2.51875 -0.002815 0.002475c-0.1366125 0.1201 -0.257525 0.2759 -0.35886 0.472625l-0.0131525 0.026 -0.0116 0.023675 0.0008625 0.000025 0.011625 -0.0233c0.1057975 -0.2088 0.2335825 -0.376975 0.37394 -0.5015Zm1.9449275 -2.507275h-0.020025c-0.083625 0.000375 -0.172435 0.007225 -0.28618 0.0238l-0.0055975 0.0071c-0.0925725 0.1183 -0.164915 0.24155 -0.223265 0.37575l-0.00834 0.00255c-0.121715 -0.07745 -0.254985 -0.13675 -0.406625 -0.177575l-0.023025 -0.00625 -0.00173 0.00085c-0.091015 0.040525 -0.1791325 0.08625 -0.2637325 0.13685l-0.0189 0.011375 -0.004735 0.024275c-0.02466 0.1295 -0.0353325 0.25505 -0.0328775 0.37665l0.000995 0.03305 -0.006815 0.005875c-0.145425 -0.027975 -0.2973825 -0.035725 -0.450035 -0.019675l-0.021525 0.0024 -0.0050575 0.0055c-0.04931 0.05395 -0.0974775 0.11185 -0.14391 0.17125l-0.016135 0.0209 -0.01138 0.01675 0.0020525 0.02825c0.013285 0.15965 0.05257 0.3072 0.1156325 0.4455l0.0121025 0.0258 -0.003865 0.008075c-0.1665025 0.03885 -0.329535 0.110875 -0.489845 0.21775l-0.005135 0.00335 -0.0030775 0.010375c-0.0066775 0.0228 -0.0131725 0.047175 -0.0199475 0.074575l-0.006645 0.027425 -0.0150825 0.06455c-0.0029725 0.012225 -0.00662 0.02645 -0.008435 0.0306l0.0013225 0.002175 0.00195 -0.0099 0.007655 0.0132c0.0911375 0.15695 0.2110675 0.2948 0.348365 0.408225l0.0000175 0.008825c-0.147425 0.12285 -0.2645875 0.261075 -0.35923 0.435425l-0.00804 0.0148 -0.0026625 -0.016625 -0.001885 -0.012325 -0.0031575 0.005175c0.00912 0.068425 0.022205 0.13415 0.0398175 0.20075l0.0071325 0.02595 0.00984 -0.0201c0.1137475 -0.22875 0.2532125 -0.4043 0.41268 -0.534275l0.01849 -0.0148 0.0067825 -0.000225 0.008265 0.005525 0.0026625 -0.000075c0.06894 0.047175 0.14009 0.088625 0.212285 0.124675 0.0682475 0.033475 0.137365 0.0622 0.206385 0.086375 0.0863775 0.03025 0.16754 0.0511 0.214045 0.05895l0.0076575 0.001175 -0.004535 -0.032625 -0.005505 -0.035575c-0.0038275 -0.024875 -0.0065775 -0.04485 -0.0087 -0.0646l-0.0013625 -0.01415 -0.0052725 -0.001275c-0.14199 -0.034775 -0.3147875 -0.104 -0.4792125 -0.206225l0.0000275 -0.005425 0.0001425 -0.009875c0.167435 -0.096275 0.32373 -0.138525 0.4697 -0.152125l0.0143425 -0.001225 0.00432 -0.02965c0.00702 -0.0454 0.0158575 -0.089875 0.0266775 -0.13445l0.00849 -0.03345 0.008235 -0.029925 -0.02047 -0.01585 -0.016105 -0.0128c-0.064365 -0.0472 -0.13215 -0.108575 -0.1961475 -0.1807 -0.026925 -0.029075 -0.0532875 -0.059725 -0.07937 -0.0925l-0.0192125 -0.0246 0.00409 -0.0092c0.0439425 -0.003575 0.0869175 -0.005275 0.12912 -0.005325 0.11564 -0.00055 0.2254325 0.011275 0.3333725 0.031075l0.009225 -0.0157c0.0363475 -0.060225 0.08051 -0.118825 0.1344875 -0.17925l0.0154675 -0.0171 -0.009985 -0.017475c-0.0559025 -0.0991 -0.1014625 -0.203975 -0.134565 -0.330025l-0.0069 -0.02735 -0.002715 -0.0112 0.00627 0.002675 0.0042375 -0.003575c0.1393875 0.05845 0.2461725 0.1271 0.34562 0.20845l-0.00002 0.0002 0.013605 -0.009725c0.055515 -0.039125 0.11565 -0.075275 0.1840775 -0.111475l0.026055 -0.013575 0.023695 -0.01205 0.0000275 -0.01595c0.0002875 -0.117525 0.00677 -0.2164 0.02701 -0.327875l0.005865 -0.030725 0.009775 -0.00285 0.00107 0.001125 0.0043 -0.001225c0.0910625 0.091075 0.14679 0.17355 0.2114925 0.29165l0.02244 -0.00415c0.0839275 -0.015 0.1674775 -0.022775 0.2512275 -0.02285l0.031425 0.00035 0.027225 0.0009 0.005425 -0.014475c0.028425 -0.0745 0.068675 -0.1591 0.122075 -0.249475l0.019675 -0.032675 0.003925 0.010275 0.005725 0.0006c0.04855 0.126225 0.079275 0.24115 0.087 0.31555l0.022225 0.005225c0.103625 0.025425 0.1987 0.058325 0.28765 0.10035l0.0231 0.01125 0.014225 -0.0118c0.147825 -0.120925 0.2923 -0.189575 0.491875 -0.243125l0.01895 -0.004975 -0.00015 -0.023925c-0.0002 -0.018425 -0.000625 -0.036575 -0.00125 -0.0545 -0.01605 -0.132825 -0.0586 -0.309775 -0.11445 -0.499875l-0.017525 -0.05855 -0.017225 -0.054975 -0.00455 -0.00885c-0.116175 -0.05555 -0.24735 -0.099875 -0.389875 -0.13575l0.001675 -0.00095c-0.132925 0.071575 -0.247975 0.15585 -0.353925 0.2559l-0.0048 -0.0006c-0.000225 0.0002 -0.00045 0.0004 -0.00065 0.0006l-0.00875 -0.00105c-0.076675 -0.11795 -0.170475 -0.2297 -0.273825 -0.3252l-0.038825 -0.000325Zm-1.73252 1.67175 0.005965 0.00255c0.090575 0.142325 0.2000225 0.26055 0.3294625 0.37135l0.0345825 0.0291 -0.0130075 0.0017 -0.02 0.00285 0.0147775 -0.0029c-0.072585 0.012625 -0.1446425 0.030625 -0.2162875 0.0553 -0.093085 0.033325 -0.189775 0.080225 -0.28426 0.140575l-0.0051875 -0.000175 -0.00687 -0.0001c-0.13184 -0.1019 -0.2480625 -0.23055 -0.340155 -0.38405l0.0015525 -0.0076c0.14347 -0.1039 0.308755 -0.170275 0.4939275 -0.2086l0.0017725 0.00075 0.0037275 -0.00075Zm0.4613125 -0.666525 0.0044025 0.004575c0.03073 0.171225 0.08387 0.32215 0.1506575 0.45455l0.0181125 0.034925 -0.00604 -0.00105 0.0005775 0.00105 -0.0114925 -0.002c-0.162465 -0.02825 -0.339925 -0.033675 -0.528135 -0.00545l-0.0059825 -0.0031c-0.0799275 -0.159875 -0.1271 -0.32295 -0.137185 -0.499425l0.004915 -0.006025 0.00108 -0.000125 0.004525 -0.00535c0.17172 -0.0202 0.3393475 -0.0093 0.504565 0.027425Zm0.202035 -0.601025c0.17836 0.035675 0.3276975 0.101 0.4665575 0.1976l0.00224 0.006275c-0.0464425 0.162575 -0.0653425 0.3205 -0.0653425 0.4683l-0.009095 0.00465 -0.002315 -0.001625 -0.0031475 0.001625c-0.127625 -0.092175 -0.2648475 -0.16605 -0.42457 -0.217725l-0.00395 -0.004975c-0.0099925 -0.119925 -0.0053025 -0.2435 0.01626 -0.36785 0.0006275 -0.00345 0.001235 -0.0069 0.0018525 -0.010325l-0.0018525 0.010325c0.0013425 -0.00775 0.00275 -0.0155 0.0042225 -0.023225 0.001595 -0.00835 0.0032575 -0.0167 0.005 -0.025075 0.0003375 -0.00165 0.0006775 -0.00325 0.0010225 -0.004875 0.00203 -0.009575 0.004165 -0.019175 0.0064075 -0.028775l0.00671 -0.004325Zm1.6524225 0.56195 -0.009125 -0.00325 -0.000025 -0.000075 -0.000625 -0.002775 -0.006475 -0.02855c-0.033575 -0.14475 -0.071875 -0.26535 -0.134525 -0.39905l0.001025 -0.006375c0.106775 -0.1127 0.23445 -0.2075 0.383325 -0.279475 0.000225 -0.0001 0.000425 -0.0002 0.00065 -0.000325l0.0038 0.000975 0.0036 0.00095c0.0923 0.138425 0.14345 0.316025 0.1594 0.483425l-0.001125 0.0018 -0.0024 0.00405c-0.1383 0.05695 -0.2697 0.12845 -0.39645 0.22785 -0.000325 0.00025 -0.00065 0.0005 -0.000975 0.000775l-0.000075 0.00005Zm-0.7156 -0.82845c0.1242 0.1035 0.225225 0.22665 0.301825 0.362175l-0.000475 0.005875 0 0.000475c-0.1002 0.12885 -0.1758 0.264625 -0.223175 0.386475l-0.002225 0.005675 -0.001975 0.005125 -0.000225 0.000575 -0.00595 -0.010675 -0.000425 -0.000725 -0.01375 -0.02205c-0.076975 -0.121775 -0.16664 -0.229925 -0.2850225 -0.330775l-0.00165 -0.006375 0.0007925 -0.0022 -0.000765 -0.00335c0.0560175 -0.14315 0.1298025 -0.274325 0.22492 -0.389475l0.0081 -0.00075Z" stroke-width="0.25"></path>
  <path fill="#ffffff" d="M2.75125 13.665875c0.415225 0 0.792225 -0.1475 1.08725 -0.398825 0.02185 -0.010925 0.224025 0.21855 0.305975 0.30595 0.016375 0.02185 0.016375 0.027325 0.016375 0.027325 -0.994375 0.868725 -2.68262 0.74305 -3.4803075 -0.75945 0.0655625 -0.218525 0.158445 -0.349675 0.158445 -0.349675 0.21308 0.087425 0.371525 0.0929 0.371525 0.0929 0.174835 0.4644 0.78676 1.081775 1.5407375 1.081775Z" stroke-width="0.25"></path>
  <path fill="#43b02a" d="M7.16055 9.579125c1.34405 0 2.414925 1.0818 2.414925 2.420375 0 1.3386 -1.07635 2.409475 -2.414925 2.409475 -1.338575 0 -2.40945 -1.065425 -2.40945 -2.409475 0 -1.3306 1.0442 -2.398825 2.369225 -2.42005l0.040225 -0.000325Zm0 3.961125c0.84685 0 1.5462 -0.693875 1.5462 -1.535275 0 -0.8414 -0.69935 -1.551675 -1.5462 -1.551675s-1.535275 0.704825 -1.535275 1.551675c0 0.8384 0.674725 1.5215 1.509925 1.535075l0.02535 0.0002Zm3.141575 -3.840925c0 -0.06555 0.0601 -0.1202 0.125675 -0.1202h0.16935l2.791925 2.96675h0.00545V9.775825c0 -0.065575 0.05465 -0.125675 0.125675 -0.125675h0.617375c0.065575 0 0.125675 0.0601 0.125675 0.125675v4.5184c0 0.065575 -0.0601 0.1202 -0.125675 0.1202h-0.15845L11.17085 11.33295h-0.005475v2.884775c0 0.065575 -0.054625 0.125675 -0.12565 0.125675h-0.611925c-0.065575 0 -0.125675 -0.0601 -0.125675 -0.125675V9.699325Zm6.714775 -0.049175c1.294875 0 2.354825 1.054475 2.354825 2.3439 0 1.300325 -1.05995 2.354825 -2.354825 2.354825H15.427c-0.065575 0 -0.1202 -0.0601 -0.1202 -0.125675V9.775825c0 -0.065575 0.054625 -0.125675 0.1202 -0.125675h1.5899Zm4.540275 -0.076475c0.06555 0 0.092875 0.032775 0.114725 0.076475l2.06525 4.518425c0.03825 0.0874 -0.010925 0.174825 -0.11475 0.174825h-0.5846c-0.09835 0 -0.147525 -0.03825 -0.1967 -0.1366l-0.3278 -0.72665h-2.00515l-0.327825 0.72665c-0.0273 0.065575 -0.0874 0.1366 -0.196675 0.1366h-0.584625c-0.092875 0 -0.1475 -0.087425 -0.10925 -0.174825l2.0871 -4.518425c0.02185 -0.038225 0.054625 -0.076475 0.114725 -0.076475h0.065575Zm-4.61675 0.8851H16.1755v3.065075h0.764925c0.874175 0 1.50795 -0.655625 1.50795 -1.535275 0 -0.874175 -0.63925 -1.5298 -1.50795 -1.5298Zm4.5785 0.808625h-0.02185l-0.65565 1.475175h1.349525l-0.672025 -1.475175Z" stroke-width="0.25"></path>
</svg>