<svg width="5120" height="2880" viewBox="0 0 5120 2880" fill="none" xmlns="http://www.w3.org/2000/svg">
<path d="M708.667 988.932C678.667 1040.8 624.4 1134.93 588 1198C551.6 1261.07 474.667 1394.27 417.067 1494C359.467 1593.73 271.867 1745.6 222.267 1831.6C172.533 1917.6 132 1988.13 132 1988.53C132 1988.93 416.133 1989.33 763.333 1989.33C1147.2 1989.33 1394.67 1988.8 1394.67 1988.13C1394.67 1987.47 1391.47 1981.33 1387.47 1974.4C1383.6 1967.6 1284 1795.2 1166.4 1591.33C1048.67 1387.47 910.533 1148 859.333 1059.33C808.133 970.532 765.6 897.199 764.667 896.265C763.467 894.932 752 913.732 708.667 988.932Z" fill="#FF9E72"/>
<path d="M1418.67 979.867C1418.67 980.533 1421.6 986.133 1425.2 992.267C1428.8 998.267 1486.8 1098.67 1554 1215.33C1621.33 1331.87 1705.07 1476.8 1740 1537.33C1774.93 1597.87 1823.2 1681.6 1847.47 1723.6C1871.6 1765.6 1891.6 1799.87 1892 1800C1892.4 1800 1917.6 1756.67 1948.27 1703.6C1978.8 1650.67 2025.87 1568.93 2053.07 1522C2169.47 1320.13 2221.33 1230.53 2277.73 1132.67C2365.47 980.667 2365.33 980.933 2365.33 979.733C2365.33 979.2 2325.6 978.667 2276.93 978.667H2188.53L2041.33 1234C1960.27 1374.4 1893.6 1490 1893.07 1490.93C1892.53 1491.87 1891.87 1492.27 1891.6 1492C1891.33 1491.6 1825.47 1377.6 1745.33 1238.67C1665.2 1099.73 1598.4 984.4 1597.07 982.267L1594.53 978.667H1506.53C1454.93 978.667 1418.67 979.2 1418.67 979.867Z" fill="#FF9E72"/>
<path d="M4837.33 1372.66V1766.66H4914.67H4992L4991.73 1372.93L4991.33 979.331L4914.4 978.931L4837.33 978.664V1372.66Z" fill="#FF9E72"/>
<path d="M2520 1170C2417.47 1182.8 2338.53 1229.2 2288.8 1305.73C2279.47 1320 2264.27 1351.2 2258.8 1367.33C2246.8 1402.93 2242.27 1432.26 2242.13 1474C2242.13 1506.8 2243.73 1522 2250 1548.66C2266.93 1620.26 2312.27 1683.2 2377.33 1725.6C2470.8 1786.66 2600.93 1800.66 2714.67 1762C2749.2 1750.26 2789.47 1728 2818 1704.93C2828.8 1696.26 2860 1664.93 2860 1662.93C2860 1662.26 2830.8 1644.93 2795.07 1624.4L2730.13 1586.93L2720.8 1595.6C2696.53 1618 2663.87 1634.66 2629.33 1641.86C2592.8 1649.6 2548.4 1647.06 2513.87 1635.33C2468.93 1620 2432.8 1589.46 2413.2 1550.4C2409.6 1543.2 2406.67 1536.93 2406.67 1536.4C2406.67 1535.73 2514.13 1535.33 2645.47 1535.33C2776.8 1535.33 2884.67 1535.06 2885.33 1534.66C2888 1532.93 2891.33 1498.8 2891.2 1473.33C2891.07 1434.53 2886.4 1404.13 2875.07 1370.13C2842.8 1272.93 2763.73 1203.06 2657.33 1177.73C2628.53 1170.93 2611.2 1169.06 2572 1168.53C2545.6 1168.26 2531.07 1168.66 2520 1170ZM2598 1306.8C2658.53 1315.73 2704.27 1351.46 2724.8 1406.4C2726.53 1410.93 2728 1415.06 2728 1415.33C2728 1415.73 2655.47 1416 2566.67 1416C2446.67 1416 2405.33 1415.6 2405.33 1414.53C2405.33 1411.86 2414.93 1390.4 2420.27 1381.33C2453.07 1324.53 2521.87 1295.73 2598 1306.8Z" fill="#FF9E72"/>
<path d="M3704 1170C3590.8 1184.13 3503.73 1241.06 3459.07 1330C3435.87 1376.13 3426.13 1418.53 3426.13 1474.66C3426.13 1506.4 3427.33 1519.73 3432.8 1546.66C3456.67 1663.33 3546.13 1750.13 3668.27 1775.2C3798.93 1802 3928.67 1764.53 4003.2 1678.4C4014.27 1665.6 4032 1641.33 4032 1638.93C4032 1638.4 4018 1629.86 4001.07 1620.13C3984 1610.26 3957.07 1594.8 3941.33 1585.6C3925.6 1576.53 3910.13 1567.6 3907.07 1565.86L3901.47 1562.66L3899.2 1566.26C3878.93 1599.73 3854 1621.33 3819.73 1634.8C3783.6 1649.06 3730.13 1650.26 3690.4 1637.86C3630.4 1619.06 3591.6 1572 3581.87 1506.4C3578.93 1486.4 3579.87 1450.13 3583.87 1432.66C3594.8 1383.86 3621.33 1347.06 3661.33 1325.46C3711.33 1298.53 3783.07 1297.46 3834 1323.06C3849.6 1330.8 3859.2 1337.73 3872.4 1350.53C3882.8 1360.53 3900 1383.2 3900 1386.8C3900 1387.46 3900.53 1388 3901.2 1388C3902.53 1388 4029.33 1315.06 4031.2 1313.33C4033.6 1310.93 4012.27 1281.73 3994.67 1263.46C3947.73 1214.4 3885.47 1183.46 3810.27 1171.73C3786.93 1168.13 3726.93 1167.2 3704 1170Z" fill="#FF9E72"/>
<path d="M4363.33 1170C4246.67 1183.46 4152.8 1247.6 4111.47 1342.13C4093.6 1382.93 4085.73 1418.4 4084.4 1465.33C4081.33 1574 4129.2 1666.13 4219.47 1725.33C4296.8 1776 4401.73 1795.06 4502.13 1776.66C4560.13 1766 4615.73 1740.93 4659.47 1705.73C4671.6 1695.86 4702.67 1665.2 4702.67 1662.93C4702.67 1662.4 4673.47 1645.06 4637.73 1624.4L4572.8 1586.93L4564.67 1594.4C4539.47 1617.73 4508.53 1633.86 4474.53 1641.06C4389.47 1659.33 4306 1629.46 4264.4 1565.73C4257.87 1555.86 4249.33 1539.06 4249.33 1536.4C4249.33 1535.73 4356.8 1535.33 4488.13 1535.33C4646 1535.33 4727.2 1534.93 4728 1534C4729.87 1531.73 4733.33 1501.33 4733.87 1482.66C4737.2 1368.4 4683.73 1268.13 4590.27 1213.6C4548.93 1189.33 4501.73 1174.66 4448.13 1169.33C4429.73 1167.6 4381.6 1167.86 4363.33 1170ZM4426.27 1305.33C4453.47 1307.73 4473.33 1313.2 4494.93 1324.26C4525.6 1339.86 4550 1366 4563.87 1398C4566.67 1404.53 4569.47 1411.33 4570 1412.93L4570.8 1416H4409.33H4247.73L4248.67 1412.26C4250.53 1404.4 4260.13 1384.8 4267.47 1373.73C4288 1342.66 4320.4 1320.4 4359.2 1310.66C4382.13 1304.8 4402.53 1303.2 4426.27 1305.33Z" fill="#FF9E72"/>
<path d="M2994.67 1475.33V1766.66H3071.33H3147.87L3148.27 1628.26C3148.67 1490.4 3148.8 1490 3151.73 1475.6C3153.47 1467.73 3156.67 1456 3158.93 1449.6C3177.73 1396 3220.67 1359.06 3279.33 1346C3292.13 1343.06 3328.4 1341.86 3342.8 1343.86C3352.67 1345.2 3363.87 1347.6 3372.4 1350.13C3374.53 1350.8 3374.67 1346.53 3374.4 1267.73L3374 1184.66L3362 1185.06C3280.13 1187.73 3204.67 1223.06 3169.73 1275.33C3160 1289.73 3154.4 1302.66 3150.67 1319.33L3148.27 1330L3148.13 1256.93L3148 1184H3071.33H2994.67V1475.33Z" fill="#FF9E72"/>
</svg>
